<svg xmlns="http://www.w3.org/2000/svg" xml:space="preserve" x="0px" y="0px" viewBox="0 0 3121 881"><path fill="#FFF" d="M2266 882H1V1h3121v881zM276.5 160.155c-10.666 0-21.366-.542-31.989.135-13.732.877-27.787 1.165-41.033 4.427C142.98 179.616 101.37 233.723 101.4 295.852c.047 101.49.025 202.98.07 304.471.003 5.993.029 12.016.585 17.974 4.046 43.36 23.922 77.305 61.778 99.282 38.224 22.19 79.122 25.747 120.906 11.931 37.476-12.391 64.028-37.323 78.149-74.513 3.902-10.275 6.274-21.13 9.753-33.116 5.254 5.626 10.055 11.11 15.215 16.232 21.495 21.343 42.312 43.455 64.86 63.628 27.754 24.829 59.332 41.226 98.56 38.233 21.998-1.678 42.833-6.19 61.568-17.956 40.09-25.176 61.932-62.157 66.698-108.694 4.111-40.153-8.329-75.121-37.415-103.82-25.124-24.788-49.96-49.869-74.914-74.829-1.23-1.23-2.379-2.538-3.966-4.238 3.163-.582 5.572-1.008 7.974-1.469 37.937-7.276 67.969-26.373 87.902-59.869 16.405-27.566 21.695-57.628 18.184-89.359-3.48-31.445-15.4-59.151-37.57-81.9-25.89-26.564-58.348-37.552-94.762-37.626-89.158-.18-178.316-.059-268.475-.059m1736.935 331.691-5.123 13.645c-10.058-37.49-19.733-73.61-29.441-109.722-9.235-34.347-18.562-68.669-27.67-103.049-.893-3.37-2.154-4.45-5.673-4.432-29.993.152-59.987.082-89.98.104-1.226.001-2.45.256-4.078.438l104.925 320.065c33.053 0 65.536.033 98.017-.127 1.247-.006 3.172-1.62 3.626-2.897 11.194-31.47 22.222-63 33.303-94.511 3.36-9.556 6.786-19.09 10.365-29.148.689 1.034 1.047 1.39 1.193 1.818 6.85 20.139 13.662 40.29 20.521 60.426 6.859 20.134 13.84 40.226 20.567 60.403 1.1 3.3 2.699 4.202 6.056 4.124 10.326-.24 20.66-.087 30.992-.087h65.668l104.977-320.033c-1.255-.305-1.578-.452-1.9-.452-31.326-.02-62.653.03-93.98-.12-3.267-.015-3.737 1.618-4.35 4.068a4941 4941 0 0 1-10.75 42.03c-11.495 44.246-23.02 88.484-34.534 132.725l-9.863 37.899c-.884-2.332-1.349-3.348-1.66-4.41-8.83-30.146-17.652-60.293-26.457-90.445-11.415-39.086-22.851-78.165-34.153-117.283-.985-3.412-2.421-4.62-6.12-4.598-29.66.175-59.32.098-88.981.098h-4.3c6.795 19.736 12.63 38.998 20.119 57.595 4.743 11.779 4.172 21.962-.34 33.704-14.18 36.91-27.21 74.262-40.976 112.172m512.98-209.866c-.665-.054-1.33-.102-1.993-.164-55.088-5.122-100.4 13.647-135.311 56.441-21.381 26.209-31.678 57.148-34.516 90.512-3.556 41.806 2.856 81.729 25.168 118.057 18.038 29.368 43.084 50.375 75.742 61.973 24.283 8.624 49.163 9.746 74.378 5.597 26.364-4.337 49.55-14.972 67.797-35.082.378-.416.923-.68 1.62-1.18 3.954 9.22 7.92 17.99 11.439 26.936 1.177 2.995 2.632 3.91 5.76 3.894 26.164-.123 52.329-.067 78.493-.08.956 0 1.913-.147 2.921-.23V288.843c-.631-.216-.937-.412-1.243-.412-28.497-.027-56.994.003-85.49-.119-2.886-.012-3.56 1.38-4.247 3.687-2.446 8.213-5.092 16.366-7.528 24.119-7.232-5.573-13.887-11.386-21.201-16.196-15.422-10.14-32.813-15.097-51.79-17.941m-1146.462 20.528c0 50.153.24 100.308-.19 150.458-.093 10.873-1.42 22.038-4.225 32.521-5.703 21.322-17.931 37.79-40.708 42.897-20.898 4.687-39.946.833-53.881-16.992-8.66-11.078-11.052-24.33-11.048-38.123.018-59.651.008-119.302.008-178.953v-5.629h-97.32c-.082 1.598-.206 2.896-.206 4.195-.01 65.816-.212 131.633.164 197.447a216 216 0 0 0 3.842 39.162c5.208 27.182 17.819 50.375 40.616 67.08 17.902 13.118 38.352 18.928 60.26 19.825 33.907 1.387 64.56-7.677 90.658-29.86 6.352-5.398 11.615-12.08 17.62-18.426l10.54 40.476h81.168V288.707h-97.298zM1531.63 408.5v200.037h97.332c0-22.672-.015-44.986.003-67.3.028-33.83-.24-67.666.244-101.49.268-18.763 4.536-36.71 16.194-52.05 20.417-26.863 62.181-27.67 81.252-1.5 8.604 11.807 10.609 25.626 10.61 39.846.009 58.83.004 117.66.004 176.49v6.028h97.504v-4.245c0-66.162.011-132.325-.01-198.488-.005-17.062-1.699-33.917-6.77-50.296-11.972-38.667-36.868-63.892-77.066-71.97-37.96-7.63-73.258-.44-104.452 22.933-8.487 6.359-15.405 14.81-23.054 22.312l-10.44-40.085h-81.35zm1489.647 6.346 47.553-126.47h-6.175c-29.83 0-59.66.114-89.489-.119-4.753-.037-6.807 1.278-8.293 5.929-18.622 58.256-37.482 116.437-56.298 174.631-1.766 5.462-3.64 10.89-5.81 17.363-8.796-24.34-17.176-47.457-25.505-70.593-14.748-40.967-29.525-81.924-44.085-122.957-1.268-3.575-2.994-4.337-6.431-4.324-31.496.117-62.993.07-94.49.07h-4.818c.858 2.34 1.403 4.038 2.093 5.676 20.764 49.334 41.547 98.66 62.316 147.993 20.575 48.872 41.157 97.741 61.628 146.657.69 1.646.809 3.993.202 5.65-10.917 29.819-21.988 59.581-33.026 89.356l-19.654 53.021c1.036.117 1.653.248 2.27.248 31.163.011 62.328-.068 93.49.115 3.71.022 4.333-2.066 5.28-4.596 18.649-49.803 37.296-99.608 55.995-149.392 20.976-55.85 42.003-111.68 63.247-168.258M910.146 327.5v281.164h97.32v-6.012c0-50.147-.127-100.295.116-150.441.044-9.1.952-18.31 2.58-27.264 5.398-29.684 27.84-47.99 58-48.062 16.828-.04 32.535 4.146 47.73 12.71l19.277-99.22c-25.033-9.735-50.105-12.698-75.815-6.206-26.166 6.608-46.21 21.518-59.482 46.906-2.433-13.726-4.748-25.963-6.692-38.26-.563-3.56-1.904-4.548-5.451-4.524-24.323.16-48.647.079-72.971.096-1.446 0-2.892.173-4.612.283z" opacity="1.000000"/><path fill="#010101" d="M277 160.155c89.659 0 178.817-.122 267.975.06 36.414.073 68.873 11.06 94.761 37.625 22.17 22.749 34.091 50.455 37.57 81.9 3.512 31.731-1.778 61.793-18.183 89.36-19.933 33.495-49.965 52.592-87.902 59.868-2.402.461-4.811.887-7.974 1.469 1.587 1.7 2.737 3.009 3.966 4.238 24.955 24.96 49.79 50.041 74.914 74.83 29.086 28.698 41.526 63.666 37.415 103.819-4.766 46.537-26.608 83.518-66.698 108.694-18.735 11.766-39.57 16.278-61.568 17.956-39.228 2.993-70.806-13.404-98.56-38.233-22.548-20.173-43.365-42.285-64.86-63.628-5.16-5.123-9.961-10.606-15.215-16.232-3.479 11.985-5.851 22.84-9.753 33.116-14.121 37.19-40.673 62.122-78.149 74.513-41.784 13.816-82.682 10.26-120.906-11.931-37.856-21.977-57.732-55.923-61.778-99.282-.556-5.958-.582-11.98-.585-17.974-.045-101.49-.023-202.98-.07-304.47-.03-62.13 41.58-116.237 102.078-131.136 13.246-3.262 27.301-3.55 41.033-4.427 10.623-.677 21.323-.135 32.49-.135m-9.05 92.31c-.839-.541-1.674-1.09-2.519-1.622-17.766-11.18-36.147-12.052-54.406-1.908-17.632 9.794-27.65 25.484-27.724 45.569-.384 103.982-.213 207.966-.116 311.95.01 9.447 2.299 18.53 7.686 26.48 12.268 18.102 30.119 24.202 51.068 23.1 28.54-1.5 48.395-22.857 48.37-51.372-.09-101.984-.224-203.968.06-305.951.053-19.195-6.958-34.168-22.419-46.246m117.562 178.691h-13.327v5.89c0 21.493.091 42.987-.085 64.478-.032 3.8 1.11 6.44 3.78 9.1 43.867 43.725 87.638 87.545 131.436 131.338 18.591 18.59 41.975 21.609 64.066 7.575 27.631-17.553 40.5-55.567 10.413-84.889-43.888-42.77-86.887-86.455-130.168-129.847-2.696-2.704-5.361-3.762-9.14-3.726-18.658.178-37.32.081-56.975.081m-13.384-91.7v9.594h6.025c55.5.002 111-.07 166.499.037 28.304.054 47.899-16.231 51.856-44.28 4.74-33.6-15.765-63.431-53.556-62.9-58.322.819-116.663.215-174.996.215h-4.53c2.615 13.424 6.361 26.313 7.385 39.415 1.476 18.897.974 37.947 1.317 57.92M2013.58 491.481c13.62-37.545 26.651-74.897 40.831-111.807 4.512-11.742 5.083-21.925.34-33.704-7.488-18.597-13.324-37.86-20.118-57.595h4.299c29.66 0 59.321.077 88.981-.098 3.699-.022 5.135 1.186 6.12 4.598 11.302 39.118 22.738 78.197 34.153 117.283 8.805 30.152 17.627 60.3 26.457 90.445.311 1.062.776 2.078 1.66 4.41l9.863-37.9c11.514-44.24 23.039-88.478 34.534-132.723a4941 4941 0 0 0 10.75-42.03c.613-2.45 1.083-4.084 4.35-4.069 31.327.15 62.654.1 93.98.12.322 0 .645.147 1.9.452l-104.977 320.033h-65.668c-10.332 0-20.666-.153-30.992.087-3.357.078-4.956-.825-6.056-4.124-6.727-20.177-13.708-40.27-20.567-60.403-6.859-20.136-13.67-40.287-20.521-60.426-.146-.428-.504-.784-1.193-1.818-3.579 10.059-7.005 19.592-10.365 29.148-11.08 31.51-22.109 63.04-33.303 94.511-.454 1.276-2.38 2.891-3.626 2.897-32.481.16-64.964.127-98.017.127L1851.47 288.83c1.627-.182 2.852-.437 4.077-.438 29.994-.022 59.988.048 89.981-.104 3.519-.018 4.78 1.063 5.673 4.432 9.108 34.38 18.435 68.702 27.67 103.05 9.708 36.11 19.383 72.232 29.44 109.721 2-5.326 3.562-9.485 5.269-14.01M2526.858 282.018c18.533 2.806 35.924 7.763 51.346 17.903 7.314 4.81 13.969 10.623 21.2 16.196 2.437-7.753 5.083-15.906 7.529-24.119.686-2.307 1.361-3.7 4.246-3.687 28.497.122 56.994.092 85.49.119.307 0 .613.196 1.244.412v319.813c-1.008.082-1.965.229-2.921.23-26.164.012-52.329-.044-78.492.08-3.13.014-4.584-.9-5.761-3.895-3.518-8.947-7.485-17.716-11.44-26.936-.696.5-1.24.764-1.619 1.18-18.246 20.11-41.433 30.745-67.797 35.082-25.215 4.149-50.095 3.027-74.378-5.597-32.658-11.598-57.704-32.605-75.742-61.973-22.312-36.328-28.724-76.25-25.168-118.057 2.838-33.364 13.135-64.303 34.516-90.512 34.912-42.794 80.223-61.563 135.311-56.441.664.062 1.328.11 2.436.202m5.17 250.564c26.498-2.055 47.266-13.906 59.729-37.572 15.213-28.89 15.617-59.028 2.08-88.515-12.083-26.318-33.853-40.208-62.727-41.486-30.018-1.329-53.325 10.98-68.262 37.45-11.279 19.986-12.775 41.678-9.747 63.962 5.499 40.466 37.782 67.887 78.927 66.161" opacity="1.000000"/><path fill="#020202" d="M1379.952 302.01v-13.303h97.298v319.88h-81.168l-10.54-40.477c-6.005 6.347-11.268 13.028-17.62 18.427-26.098 22.182-56.751 31.246-90.657 29.859-21.91-.897-42.359-6.707-60.261-19.825-22.797-16.705-35.408-39.898-40.616-67.08a216 216 0 0 1-3.842-39.162c-.376-65.814-.174-131.631-.164-197.447 0-1.299.124-2.597.205-4.195h97.32v5.629c0 59.65.011 119.302-.007 178.953-.004 13.793 2.388 27.045 11.048 38.123 13.935 17.825 32.983 21.679 53.881 16.992 22.777-5.108 35.005-21.575 40.708-42.897 2.805-10.483 4.132-21.648 4.225-32.521.43-50.15.19-100.305.19-150.956" opacity="1.000000"/><path fill="#010101" d="M1531.63 408V288.722h81.351l10.44 40.085c7.649-7.502 14.567-15.953 23.054-22.312 31.194-23.374 66.491-30.562 104.452-22.933 40.198 8.078 65.094 33.303 77.066 71.97 5.071 16.38 6.765 33.234 6.77 50.296.021 66.163.01 132.326.01 198.488v4.245h-97.504v-6.028c0-58.83.005-117.66-.003-176.49-.002-14.22-2.007-28.04-10.61-39.846-19.072-26.17-60.836-25.363-81.253 1.5-11.658 15.34-15.926 33.287-16.194 52.05-.484 33.824-.216 67.66-.244 101.49-.018 22.314-.003 44.628-.003 67.3h-97.332zM3021.159 415.216c-21.125 56.209-42.152 112.039-63.128 167.888-18.699 49.784-37.346 99.589-55.995 149.392-.947 2.53-1.57 4.618-5.28 4.596-31.162-.183-62.327-.104-93.49-.115-.617 0-1.234-.13-2.27-.248l19.654-53.02c11.038-29.776 22.109-59.538 33.026-89.357.607-1.657.487-4.004-.202-5.65-20.471-48.916-41.053-97.785-61.628-146.657-20.77-49.332-41.552-98.659-62.316-147.993-.69-1.638-1.235-3.337-2.093-5.677h4.818c31.497 0 62.994.048 94.49-.069 3.437-.013 5.163.75 6.431 4.324 14.56 41.033 29.337 81.99 44.085 122.957 8.329 23.136 16.71 46.254 25.506 70.593 2.169-6.473 4.043-11.9 5.81-17.363 18.815-58.194 37.675-116.375 56.297-174.631 1.486-4.65 3.54-5.966 8.293-5.929 29.828.233 59.66.118 89.49.118h6.174c-16.028 42.629-31.79 84.55-47.672 126.841M910.146 327v-38.33c1.72-.11 3.166-.283 4.612-.283 24.324-.017 48.648.064 72.971-.096 3.547-.024 4.888.963 5.451 4.524 1.944 12.297 4.259 24.534 6.692 38.26 13.272-25.388 33.316-40.298 59.482-46.906 25.71-6.492 50.782-3.53 75.815 6.206l-19.277 99.22c-15.195-8.564-30.902-12.75-47.73-12.71-30.16.072-52.602 18.378-58 48.062-1.628 8.955-2.536 18.165-2.58 27.264-.243 50.146-.116 100.294-.116 150.441v6.012h-97.32z" opacity="1.000000"/><path fill="#FEFEFE" d="M268.24 252.68c15.172 11.863 22.183 26.836 22.13 46.031-.284 101.983-.15 203.967-.06 305.95.025 28.516-19.83 49.873-48.37 51.374-20.95 1.101-38.8-5-51.068-23.102-5.387-7.949-7.677-17.032-7.686-26.479-.097-103.984-.268-207.968.116-311.95.074-20.085 10.092-35.775 27.724-45.57 18.259-10.143 36.64-9.272 54.406 1.91.845.531 1.68 1.08 2.808 1.836M386.01 431.156c19.159 0 37.82.097 56.479-.08 3.778-.037 6.443 1.021 9.14 3.725 43.28 43.392 86.279 87.077 130.167 129.847 30.088 29.322 17.218 67.336-10.413 84.889-22.091 14.034-45.475 11.015-64.066-7.575-43.798-43.793-87.57-87.613-131.437-131.337-2.67-2.662-3.81-5.3-3.78-9.1.177-21.492.086-42.986.086-64.478v-5.89zM372.129 338.963c-.343-19.479.159-38.53-1.317-57.426-1.024-13.102-4.77-25.991-7.385-39.415h4.53c58.333 0 116.674.604 174.996-.215 37.791-.531 58.296 29.3 53.556 62.9-3.957 28.049-23.552 44.334-51.856 44.28-55.5-.107-111-.035-166.499-.037h-6.025zM2531.574 532.625c-40.691 1.683-72.974-25.738-78.473-66.204-3.028-22.284-1.532-43.976 9.747-63.962 14.937-26.47 38.244-38.779 68.262-37.45 28.874 1.278 50.644 15.168 62.726 41.486 13.538 29.487 13.134 59.625-2.08 88.515-12.462 23.666-33.23 35.517-60.182 37.615" opacity="1.000000"/></svg>